#tb 0: 71/500
#media_type 0: video
#codec_id 0: rawvideo
#dimensions 0: 640x480
#sar 0: 0/1
0,          0,          0,        1,   921600, 0x00000000
0,          1,          1,        1,   921600, 0xd9e060e3
0,          2,          2,        1,   921600, 0x15e28dc7
0,          3,          3,        1,   921600, 0x78e8bfbc
0,          4,          4,        1,   921600, 0xe9407075
0,          5,          5,        1,   921600, 0xab818b8a
0,          6,          6,        1,   921600, 0xab818b8a
0,          7,          7,        1,   921600, 0xab818b8a
0,          8,          8,        1,   921600, 0xab818b8a
0,          9,          9,        1,   921600, 0xab818b8a
0,         10,         10,        1,   921600, 0xab818b8a
0,         11,         11,        1,   921600, 0xad5ad11c
0,         12,         12,        1,   921600, 0xe6e50f8c
0,         13,         13,        1,   921600, 0x9f127099
